<mxfile host="app.diagrams.net" modified="2024-02-16T09:43:31.515Z" agent="Mozilla/5.0 (Macintosh; Intel Mac OS X 10_15_7) AppleWebKit/537.36 (KHTML, like Gecko) Chrome/121.0.0.0 Safari/537.36" version="22.1.16" etag="F8bbIsJgCyB_dQFhrlm_" type="github">
  <diagram name="Page-1" id="9LVMZyJhD1L-9WL0oiTr">
    <mxGraphModel>
      <root>
        <mxCell id="0" />
        <mxCell id="1" parent="0" />
      </root>
    </mxGraphModel>
  </diagram>
</mxfile>
